{
  "streams": [
    {
      "index": 0,
      "codec_name": "h264",
      "codec_long_name": "H.264 / AVC / MPEG-4 AVC / MPEG-4 part 10",
      "profile": "High",
      "codec_type": "video",
      "codec_tag_string": "[27][0][0][0]",
      "codec_tag": "0x001b",
      "width": 1280,
      "height": 720,
      "coded_width": 1280,
      "coded_height": 720,
      "closed_captions": 1,
      "film_grain": 0,
      "has_b_frames": 2,
      "sample_aspect_ratio": "1:1",
      "display_aspect_ratio": "16:9",
      "pix_fmt": "yuv420p",
      "level": 40,
      "chroma_location": "left",
      "field_order": "progressive",
      "refs": 1,
      "is_avc": "0",
      "nal_length_size": "0",
      "id": "0x780",
      "r_frame_rate": "50/1",
      "avg_frame_rate": "50/1",
      "time_base": "1/90000",
      "start_pts": 3413677344,
      "start_time": "37929.748267",
      "duration_ts": 218329200,
      "duration": "2425.880000",
      "bits_per_raw_sample": "8",
      "extradata_size": 142,
      "disposition": {
        "default": 0,
        "dub": 0,
        "original": 0,
        "comment": 0,
        "lyrics": 0,
        "karaoke": 0,
        "forced": 0,
        "hearing_impaired": 0,
        "visual_impaired": 0,
        "clean_effects": 0,
        "attached_pic": 0,
        "timed_thumbnails": 0,
        "non_diegetic": 0,
        "captions": 0,
        "descriptions": 0,
        "metadata": 0,
        "dependent": 0,
        "still_image": 0,
        "multilayer": 0
      }
    },
    {
      "index": 1,
      "codec_name": "ac3",
      "codec_long_name": "ATSC A/52A (AC-3)",
      "codec_type": "audio",
      "codec_tag_string": "[6][0][0][0]",
      "codec_tag": "0x0006",
      "sample_fmt": "fltp",
      "sample_rate": "48000",
      "channels": 6,
      "channel_layout": "5.1(side)",
      "bits_per_sample": 0,
      "initial_padding": 0,
      "ts_id": "1007",
      "ts_packetsize": "188",
      "id": "0x781",
      "r_frame_rate": "0/0",
      "avg_frame_rate": "0/0",
      "time_base": "1/90000",
      "start_pts": 3413675782,
      "start_time": "37929.730911",
      "duration_ts": 218283840,
      "duration": "2425.376000",
      "bit_rate": "448000",
      "disposition": {
        "default": 0,
        "dub": 0,
        "original": 0,
        "comment": 0,
        "lyrics": 0,
        "karaoke": 0,
        "forced": 0,
        "hearing_impaired": 0,
        "visual_impaired": 0,
        "clean_effects": 1,
        "attached_pic": 0,
        "timed_thumbnails": 0,
        "non_diegetic": 0,
        "captions": 0,
        "descriptions": 0,
        "metadata": 0,
        "dependent": 0,
        "still_image": 0,
        "multilayer": 0
      },
      "tags": {
        "language": "deu"
      }
    },
    {
      "index": 2,
      "codec_name": "ac3",
      "codec_long_name": "ATSC A/52A (AC-3)",
      "codec_type": "audio",
      "codec_tag_string": "[6][0][0][0]",
      "codec_tag": "0x0006",
      "sample_fmt": "fltp",
      "sample_rate": "48000",
      "channels": 6,
      "channel_layout": "5.1(side)",
      "bits_per_sample": 0,
      "initial_padding": 0,
      "ts_id": "1007",
      "ts_packetsize": "188",
      "id": "0x782",
      "r_frame_rate": "0/0",
      "avg_frame_rate": "0/0",
      "time_base": "1/90000",
      "start_pts": 3413675782,
      "start_time": "37929.730911",
      "duration_ts": 218283840,
      "duration": "2425.376000",
      "bit_rate": "448000",
      "disposition": {
        "default": 0,
        "dub": 0,
        "original": 0,
        "comment": 0,
        "lyrics": 0,
        "karaoke": 0,
        "forced": 0,
        "hearing_impaired": 0,
        "visual_impaired": 0,
        "clean_effects": 1,
        "attached_pic": 0,
        "timed_thumbnails": 0,
        "non_diegetic": 0,
        "captions": 0,
        "descriptions": 0,
        "metadata": 0,
        "dependent": 0,
        "still_image": 0,
        "multilayer": 0
      },
      "tags": {
        "language": "mis"
      }
    },
    {
      "index": 3,
      "codec_name": "dvb_teletext",
      "codec_long_name": "DVB teletext",
      "codec_type": "subtitle",
      "codec_tag_string": "[6][0][0][0]",
      "codec_tag": "0x0006",
      "width": 492,
      "height": 250,
      "ts_id": "1007",
      "ts_packetsize": "188",
      "id": "0x785",
      "r_frame_rate": "0/0",
      "avg_frame_rate": "0/0",
      "time_base": "1/90000",
      "start_pts": 3413675515,
      "start_time": "37929.727944",
      "duration_ts": 218282400,
      "duration": "2425.360000",
      "extradata_size": 4,
      "disposition": {
        "default": 0,
        "dub": 0,
        "original": 0,
        "comment": 0,
        "lyrics": 0,
        "karaoke": 0,
        "forced": 0,
        "hearing_impaired": 0,
        "visual_impaired": 0,
        "clean_effects": 0,
        "attached_pic": 0,
        "timed_thumbnails": 0,
        "non_diegetic": 0,
        "captions": 0,
        "descriptions": 0,
        "metadata": 0,
        "dependent": 0,
        "still_image": 0,
        "multilayer": 0
      },
      "tags": {
        "language": "deu,deu"
      }
    },
    {
      "index": 4,
      "codec_tag_string": "[5][0][0][0]",
      "codec_tag": "0x0005",
      "ts_id": "1007",
      "ts_packetsize": "188",
      "id": "0x1c8e",
      "r_frame_rate": "0/0",
      "avg_frame_rate": "0/0",
      "time_base": "1/90000",
      "start_pts": 3413675515,
      "start_time": "37929.727944",
      "duration_ts": 218403000,
      "duration": "2426.700000",
      "disposition": {
        "default": 0,
        "dub": 0,
        "original": 0,
        "comment": 0,
        "lyrics": 0,
        "karaoke": 0,
        "forced": 0,
        "hearing_impaired": 0,
        "visual_impaired": 0,
        "clean_effects": 0,
        "attached_pic": 0,
        "timed_thumbnails": 0,
        "non_diegetic": 0,
        "captions": 0,
        "descriptions": 0,
        "metadata": 0,
        "dependent": 0,
        "still_image": 0,
        "multilayer": 0
      }
    },
    {
      "index": 5,
      "codec_tag_string": "[11][0][0][0]",
      "codec_tag": "0x000b",
      "ts_id": "1007",
      "ts_packetsize": "188",
      "id": "0x1c8f",
      "r_frame_rate": "0/0",
      "avg_frame_rate": "0/0",
      "time_base": "1/90000",
      "start_pts": 3413675515,
      "start_time": "37929.727944",
      "duration_ts": 218403000,
      "duration": "2426.700000",
      "disposition": {
        "default": 0,
        "dub": 0,
        "original": 0,
        "comment": 0,
        "lyrics": 0,
        "karaoke": 0,
        "forced": 0,
        "hearing_impaired": 0,
        "visual_impaired": 0,
        "clean_effects": 0,
        "attached_pic": 0,
        "timed_thumbnails": 0,
        "non_diegetic": 0,
        "captions": 0,
        "descriptions": 0,
        "metadata": 0,
        "dependent": 0,
        "still_image": 0,
        "multilayer": 0
      }
    }
  ],
  "format": {
    "filename": "/media/nfs-recordings/20251217 1219 - ORF1 HD - Monk.ts",
    "nb_streams": 6,
    "nb_programs": 22,
    "nb_stream_groups": 0,
    "format_name": "mpegts",
    "format_long_name": "MPEG-TS (MPEG-2 Transport Stream)",
    "start_time": "37929.727944",
    "duration": "2426.700000",
    "size": "3088662528",
    "bit_rate": "10182264",
    "probe_score": 50
  }
}